<svg height="100%" viewBox="0 0 29 28" fill="currentColor" xmlns="http://www.w3.org/2000/svg">
   <path
      d="M7.1817 0.100612C2.55592 0.815457 -0.614028 5.14524 0.100569 9.77264C0.815165 14.4 5.14375 17.5731 9.76954 16.8582C14.3953 16.1434 17.567 11.8113 16.8524 7.1839C16.1378 2.5565 11.8075 -0.614233 7.1817 0.100612ZM7.32779 1.04659C11.4309 0.412521 15.2709 3.22582 15.9047 7.33035C16.5386 11.4349 13.7262 15.2762 9.62314 15.9103C5.52005 16.5443 1.68007 13.731 1.04622 9.6265C0.412367 5.52198 3.22469 1.68066 7.32779 1.04659Z"
      fill="currentColor" />
   <path
      d="M28.3253 24.1704C23.2716 20.6951 20.2548 18.4746 16.4968 14.1603C15.4047 12.7627 15.5491 12.8775 14.3765 14.1215C13.009 15.3657 13.1378 15.4367 14.3968 16.2889C18.4547 19.0399 22.1201 23.1135 25.3252 27.1703C26.7978 28.4265 29.5901 25.841 28.3253 24.1704Z"
      fill="currentColor" />
</svg>