<svg height="100%" viewBox="0 0 36 36" xmlns="http://www.w3.org/2000/svg">
    <path
        d="M18.7485 3.85454L21.5019 12.3287C21.7027 12.9467 22.2787 13.3652 22.9285 13.3652L31.8388 13.3652C32.3231 13.3652 32.5245 13.985 32.1327 14.2697L24.9241 19.507C24.3984 19.889 24.1784 20.566 24.3792 21.1841L27.1326 29.6582C27.2823 30.1189 26.7551 30.502 26.3632 30.2173L19.1547 24.9799C18.6289 24.598 17.917 24.598 17.3913 24.9799L10.1827 30.2173C9.79088 30.502 9.26364 30.1189 9.41332 29.6582L12.1667 21.1841C12.3676 20.566 12.1476 19.889 11.6218 19.507L4.41327 14.2697C4.02142 13.985 4.2228 13.3652 4.70717 13.3652L13.6174 13.3652C14.2673 13.3652 14.8432 12.9467 15.044 12.3287L17.7974 3.85454C17.9471 3.39388 18.5988 3.39388 18.7485 3.85454Z"
        stroke="black" stroke-width="2" />
</svg>